<svg width="24" height="29" viewBox="0 0 24 29" fill="none" xmlns="http://www.w3.org/2000/svg">
<path d="M13.037 16.037C13.4321 16.1852 13.8765 16.3951 14.3704 16.6667C13.6296 14 13.0617 11.7284 12.6667 9.85185C11.7037 11.7778 10.4321 14.1235 8.85185 16.8889C8.72839 17.1605 8.51852 17.5432 8.22222 18.037C9.20988 16.5062 10.3333 15.7407 11.5926 15.7407C12.0864 15.7407 12.5679 15.8395 13.037 16.037ZM18.963 10.7778C19.9753 14.2099 21.1728 17.4074 22.5556 20.3704L22.963 21.1852C23.3086 21.7778 23.5679 22.284 23.7407 22.7037C23.9136 23.0988 24 23.5062 24 23.9259C24 24.5679 23.7284 25.2346 23.1852 25.9259C22.642 26.5926 22.0494 27.0864 21.4074 27.4074C21.0123 27.6296 20.5926 27.7407 20.1481 27.7407C19.4074 27.7407 18.6667 27.5185 17.9259 27.0741C17.2099 26.6049 16.3457 25.9383 15.3333 25.0741C14.6173 24.4815 14.0741 24.0617 13.7037 23.8148C13.4568 23.642 12.9383 23.3704 12.1481 23C10.7654 22.3086 9.69136 21.6914 8.92593 21.1481C8.18519 20.6049 7.81482 19.963 7.81482 19.2222C7.81482 19.0247 7.90123 18.7284 8.07407 18.3333C7.60494 19.1728 6.95062 20.4568 6.11111 22.1852C5.07407 24.284 4.48148 25.4568 4.33333 25.7037C4.03704 26.2469 3.55556 26.8519 2.88889 27.5185C2.22222 28.1605 1.60494 28.4815 1.03704 28.4815C0.740741 28.4815 0.481481 28.3704 0.259259 28.1481C0.0864197 27.9753 0 27.7037 0 27.3333C0 26.2963 0.790123 24.4568 2.37037 21.8148C2.46914 21.6173 2.62963 21.3333 2.85185 20.963L3.66667 19.4074C5.34568 16.2469 6.5679 13.8642 7.33333 12.2593C7.77778 11.321 8.41975 9.91358 9.25926 8.03704L10.5926 5.03704C11.1358 3.87654 11.679 2.91358 12.2222 2.14815C12.7654 1.35803 13.4444 0.753087 14.2593 0.333333C14.679 0.111111 15.0741 0 15.4444 0C15.9383 0 16.2963 0.234569 16.5185 0.703706C16.7407 1.14815 16.9383 1.81482 17.1111 2.7037C17.5556 5.24691 18.1728 7.93827 18.963 10.7778Z" fill="#222222"/>
</svg>
